<?xml version="1.0" encoding="UTF-8"?>
<svg width="331px" height="72px" viewBox="0 0 331 72" version="1.1" xmlns="http://www.w3.org/2000/svg" xmlns:xlink="http://www.w3.org/1999/xlink">
    <!-- Generator: Sketch 50.2 (55047) - http://www.bohemiancoding.com/sketch -->
    <title>Group</title>
    <desc>Created with Sketch.</desc>
    <defs>
        <polygon id="path-1" points="0.0819252492 0.167125758 61.5302608 0.167125758 61.5302608 71.8939394 0.0819252492 71.8939394"></polygon>
    </defs>
    <g id="Page-1" stroke="none" stroke-width="1" fill="none" fill-rule="evenodd">
        <g id="Main-Construction-1920-Copy" transform="translate(-799.000000, -167.000000)">
            <g id="Group" transform="translate(799.000000, 166.000000)">
                <path d="M298.286313,19.1336318 L302.127453,19.1336318 C303.541626,19.1336318 304.687479,20.286147 304.687479,21.7085409 L304.688579,26.8594652 C304.688579,28.2818591 303.541626,29.4343742 302.127453,29.4343742 L298.286313,29.4343742 L298.286313,19.1336318 Z M298.286313,34.5852985 L300.964004,34.5852985 L305.632094,50.0358591 L310.984177,50.0358591 L305.996084,33.5267985 C308.274596,32.186253 309.808632,29.7053591 309.808632,26.8594652 L309.808632,21.7074348 C309.808632,17.4413591 306.369971,13.9827076 302.127453,13.9827076 L293.16736,13.9827076 L293.16736,50.0358591 L298.286313,50.0358591 L298.286313,34.5852985 Z M288.045107,19.1336318 L288.045107,13.9827076 L272.683848,13.9827076 L272.683848,50.0358591 L288.045107,50.0358591 L288.045107,44.8849348 L277.803901,44.8849348 L277.803901,34.5852985 L286.765094,34.5852985 L286.765094,29.4343742 L277.803901,29.4343742 L277.803901,19.1336318 L288.045107,19.1336318 Z M312.369758,13.9827076 L312.369758,19.1336318 L318.769825,19.1336318 L318.769825,50.0358591 L323.890978,50.0358591 L323.890978,19.1336318 L330.291044,19.1336318 L330.291044,13.9827076 L312.369758,13.9827076 Z M248.313011,50.0358591 L240.889154,32.0103894 L248.313011,13.9827076 L242.770685,13.9827076 L238.116891,25.2800106 L233.464197,13.9827076 L227.922971,13.9827076 L235.345729,32.0103894 L227.922971,50.0358591 L233.464197,50.0358591 L238.116891,38.7396621 L242.770685,50.0358591 L248.313011,50.0358591 Z M263.721556,26.8594652 C263.721556,28.2818591 262.574602,29.4343742 261.16043,29.4343742 L257.32039,29.4343742 L257.32039,19.1336318 L261.161529,19.1336318 C262.574602,19.1336318 263.721556,20.286147 263.721556,21.7085409 L263.721556,26.8594652 Z M261.161529,13.9827076 L252.200337,13.9827076 L252.200337,50.0358591 L257.32039,50.0358591 L257.32039,34.5852985 L261.161529,34.5852985 C265.404048,34.5852985 268.842709,31.1255409 268.842709,26.8594652 L268.843808,21.7074348 C268.843808,17.4413591 265.404048,13.9827076 261.161529,13.9827076 Z M209.9533,50.0358591 L225.315659,50.0358591 L225.315659,44.8849348 L215.073353,44.8849348 L215.073353,34.5852985 L224.035646,34.5852985 L224.035646,29.4343742 L215.073353,29.4343742 L215.073353,19.1336318 L225.315659,19.1336318 L225.315659,13.9827076 L209.9533,13.9827076 L209.9533,50.0358591 Z" id="Fill-1" fill="#1F1C20"></path>
                <path d="M58.7520601,34.5785515 L55.2980037,41.9825212 L59.0324754,50.0368545 L61.7079671,50.0368545 L57.7810535,41.8741273 L61.297791,34.5785515 L58.7520601,34.5785515 Z M54.7140801,13.9759606 L47.1373691,13.9759606 L47.1373691,16.1692788 L49.706193,16.1692788 L49.706193,29.4342636 L52.1243625,29.4342636 L52.1243625,16.1692788 L54.7140801,16.1692788 L54.7140801,13.9759606 Z M60.0452694,27.2409455 L58.8785219,27.2409455 L58.8785219,22.4218394 L60.0452694,22.4218394 C61.3395784,22.4218394 61.8795153,23.1153394 61.8795153,24.8308394 C61.880615,26.6337182 61.3615718,27.2409455 60.0452694,27.2409455 Z M58.8785219,16.1692788 L60.0232761,16.1692788 C61.3186847,16.1692788 61.8377279,16.6902333 61.8377279,18.253097 C61.8377279,19.7296879 61.2966914,20.3601424 60.0232761,20.3601424 L58.8785219,20.3590364 L58.8785219,16.1692788 Z M63.4773326,21.9008848 C63.2617977,21.6619758 62.9802827,21.466203 62.6580801,21.3356879 C62.959389,21.2062788 63.217811,21.0326273 63.4542395,20.7948242 C64.1459306,20.0991121 64.2547977,19.2297485 64.2547977,18.1889455 C64.2547977,16.6692182 63.9952761,15.6494303 63.3046847,14.931597 C62.6580801,14.2801273 61.7299605,13.9770667 60.304791,13.9770667 L56.4614522,13.9759606 L56.4614522,29.4342636 L60.281698,29.4342636 C61.7079671,29.4342636 62.6580801,29.131203 63.3046847,28.4576121 C64.0381631,27.6977485 64.2976847,26.611597 64.2976847,24.8529606 C64.2976847,23.8984303 64.2317047,22.7260061 63.4773326,21.9008848 Z M45.4999638,47.8435364 L41.4608841,47.8435364 L41.4608841,43.3496121 L44.9369339,43.3496121 L44.9369339,41.1574 L41.4608841,41.1574 L41.4608841,36.7707636 L45.4999638,36.7707636 L45.4999638,34.5785515 L39.0438143,34.5785515 L39.0438143,50.0368545 L45.4999638,50.0368545 L45.4999638,47.8435364 Z M36.4551963,50.0368545 L36.4551963,34.5785515 L28.5980701,34.5785515 L28.5980701,50.0368545 L31.0162395,50.0368545 L31.0162395,36.7707636 L34.0370269,36.7707636 L34.0370269,50.0368545 L36.4551963,50.0368545 Z M36.47609,27.2409455 L32.4403093,27.2409455 L32.4403093,22.7481273 L35.9152595,22.7481273 L35.9152595,20.5548091 L32.4403093,20.5548091 L32.4403093,16.1692788 L36.47609,16.1692788 L36.47609,13.9759606 L30.0221399,13.9759606 L30.0221399,29.4342636 L36.47609,29.4342636 L36.47609,27.2409455 Z M42.2614422,29.6079152 C43.4259904,29.6079152 44.2243492,29.2827333 44.9160402,28.6312636 C45.6924056,27.9145364 46.1454688,26.721097 46.1894555,25.3318848 L43.771286,25.3318848 C43.748193,25.8937636 43.6635186,26.4600667 43.403997,26.8505061 C43.1895618,27.1978091 42.8442661,27.415703 42.2614422,27.415703 C41.6775186,27.414597 41.3322229,27.1779 41.116688,26.8283848 C40.6416316,26.0906424 40.5767512,24.5277788 40.5767512,21.7040061 C40.5767512,18.8835515 40.6405319,17.3195818 41.116688,16.5818394 C41.3322229,16.2345364 41.6775186,15.9956273 42.2614422,15.9956273 C42.8442661,15.9956273 43.1895618,16.2135212 43.403997,16.5597182 C43.6646183,16.9291424 43.748193,17.4943394 43.771286,18.0573242 L46.1894555,18.0573242 C46.1454688,16.6891273 45.7352927,15.5189152 44.9589272,14.8010818 C44.2683359,14.1496121 43.4259904,13.8034152 42.2614422,13.8034152 C40.8373724,13.8034152 39.9081532,14.3664 39.2813425,15.1273697 C38.2674488,16.3440364 38.1585817,18.035203 38.1585817,21.7040061 C38.1585817,25.3739152 38.2674488,27.0684 39.2813425,28.2839606 C39.9081532,29.0427182 40.8362728,29.6079152 42.2614422,29.6079152 Z M49.0595884,50.0368545 L52.7929605,41.9825212 L49.3400037,34.5785515 L46.7920734,34.5785515 L50.3110103,41.8741273 L46.3818973,50.0368545 L49.0595884,50.0368545 Z M15.6923691,39.2892636 C15.6923691,40.8543394 15.3668674,41.7867485 14.0714588,41.7867485 L12.7111698,41.7867485 L12.7111698,36.7707636 L14.0714588,36.7707636 C15.3679671,36.7707636 15.6923691,37.7286121 15.6923691,39.2892636 Z M10.2951997,34.5785515 L10.2951997,50.0368545 L12.7111698,50.0368545 L12.7111698,43.9800667 L14.1583326,43.9800667 C16.9426914,43.9800667 18.1083392,42.525597 18.1083392,39.2892636 C18.1083392,36.0551424 16.9415917,34.5785515 14.1583326,34.5785515 L10.2951997,34.5785515 Z M23.2668807,24.202597 C23.828811,24.202597 24.4105352,24.1793697 25.0362462,24.094203 L25.0362462,29.4342636 L27.4335219,29.4342636 L27.4335219,13.9759606 L25.0164522,13.9759606 L25.0164522,21.9230061 C24.5183027,21.9882636 24.1521133,22.0314 23.6561631,22.0314 C22.6202761,22.0314 22.1232262,21.6398545 22.1232262,20.2075061 L22.1232262,13.9759606 L19.7061565,13.9759606 L19.7061565,20.4464152 C19.7061565,23.180597 20.7629372,24.202597 23.2668807,24.202597 Z M73.1038243,27.2409455 L69.0658442,27.2409455 L69.0658442,22.7481273 L72.5407944,22.7481273 L72.5407944,20.5548091 L69.0658442,20.5548091 L69.0658442,16.1692788 L73.1038243,16.1692788 L73.1038243,13.9759606 L66.6498741,13.9759606 L66.6498741,29.4342636 L73.1038243,29.4342636 L73.1038243,27.2409455 Z M52.8369472,50.0368545 L55.2529173,50.0368545 L55.2529173,34.5785515 L52.8369472,34.5785515 L52.8369472,50.0368545 Z M112.577499,23.4427333 L112.577499,13.9759606 L110.160429,13.9759606 L110.160429,29.4342636 L112.297083,29.4342636 L115.75114,19.968597 L115.75114,29.4342636 L118.16821,29.4342636 L118.16821,13.9759606 L116.009562,13.9759606 L112.577499,23.4427333 Z M91.0394056,20.4895515 L88.0384123,20.4895515 L88.0384123,13.9759606 L85.6213425,13.9759606 L85.6213425,29.4342636 L88.0384123,29.4342636 L88.0384123,22.6828697 L91.0394056,22.6828697 L91.0394056,29.4342636 L93.4575751,29.4342636 L93.4575751,13.9759606 L91.0394056,13.9759606 L91.0394056,20.4895515 Z M8.46205349,13.9759606 L5.91522292,13.9759606 L2.46116645,21.3799303 L6.19563821,29.4342636 L8.8711299,29.4342636 L4.94311661,21.2704303 L8.46205349,13.9759606 Z M105.176735,29.4342636 L107.593804,29.4342636 L107.593804,13.9759606 L105.176735,13.9759606 L105.176735,29.4342636 Z M8.46205349,34.5785515 L5.91522292,34.5785515 L2.46116645,41.9825212 L6.19563821,50.0368545 L8.8711299,50.0368545 L4.94311661,41.8741273 L8.46205349,34.5785515 Z M99.8235518,27.2409455 L98.4621631,27.2409455 L98.4621631,22.2260667 L99.8235518,22.2260667 C101.117861,22.2260667 101.442263,23.1606879 101.442263,24.7224455 C101.442263,26.2875212 101.117861,27.2409455 99.8235518,27.2409455 Z M99.9093259,20.0338545 L98.4621631,20.0338545 L98.4621631,13.9759606 L96.0450934,13.9759606 L96.0450934,29.4342636 L99.9093259,29.4342636 C102.693685,29.4342636 103.859333,27.9587788 103.859333,24.7224455 C103.859333,21.4883242 102.693685,20.0338545 99.9093259,20.0338545 Z M14.1583326,17.7111273 L15.4757346,24.1793697 L12.8420302,24.1793697 L14.1583326,17.7111273 Z M12.3658741,26.3726879 L15.930997,26.3726879 L16.5545086,29.4342636 L19.0804455,29.4342636 L15.3470734,13.9759606 L12.9948841,13.9759606 L9.21642558,29.4342636 L11.7632561,29.4342636 L12.3658741,26.3726879 Z M20.0723458,50.0368545 L26.526296,50.0368545 L26.526296,47.8435364 L22.4905153,47.8435364 L22.4905153,43.3496121 L25.9676648,43.3496121 L25.9676648,41.1574 L22.4905153,41.1574 L22.4905153,36.7707636 L26.526296,36.7707636 L26.526296,34.5785515 L20.0723458,34.5785515 L20.0723458,50.0368545 Z M0.000109966777,29.4342636 L2.41717973,29.4342636 L2.41717973,13.9759606 L0.000109966777,13.9759606 L0.000109966777,29.4342636 Z M114.154422,12.9993091 C115.578492,12.9993091 116.853007,12.3909758 116.916788,10.4808091 L115.298077,10.4808091 C115.25519,11.2185515 114.75814,11.4795818 114.154422,11.4795818 C113.550705,11.4795818 113.052555,11.2185515 113.010768,10.4808091 L111.390957,10.4808091 C111.456937,12.3909758 112.730352,12.9993091 114.154422,12.9993091 Z M0.000109966777,50.0368545 L2.41717973,50.0368545 L2.41717973,34.5785515 L0.000109966777,34.5785515 L0.000109966777,50.0368545 Z M83.0316249,29.4342636 L83.0316249,13.9759606 L80.6134555,13.9759606 L80.6134555,20.4895515 L77.6135618,20.4895515 L77.6135618,13.9759606 L75.196492,13.9759606 L75.196492,29.4342636 L77.6135618,29.4342636 L77.6135618,22.6828697 L80.6134555,22.6828697 L80.6134555,29.4342636 L83.0316249,29.4342636 Z" id="Fill-3" fill="#1F1C20"></path>
                <g id="Group-7" transform="translate(133.059801, 0.939045)">
                    <mask id="mask-2" fill="white">
                        <use xlink:href="#path-1"></use>
                    </mask>
                    <g id="Clip-6"></g>
                    <polygon id="Fill-5" fill="#FFE800" mask="url(#mask-2)" points="0.0819252492 0.167125758 0.0819252492 54.0510803 30.8055432 71.89405 61.5302608 54.0510803 61.5302608 0.167125758"></polygon>
                </g>
                <path d="M158.277382,13.9824864 L151.913605,29.434153 L149.783548,29.434153 L149.783548,13.9824864 L144.662395,13.9824864 L144.662395,50.0367439 L149.783548,50.0367439 L149.783548,34.5850773 L151.913605,34.5850773 L158.277382,50.0367439 L163.819708,50.0367439 L156.39585,32.0101682 L163.819708,13.9824864 L158.277382,13.9824864 Z M182.034605,30.2083955 C182.688907,29.0724712 183.068292,27.7562591 183.068292,26.3504561 L183.068292,21.38535 C183.068292,17.1203803 179.629631,13.6606227 175.388213,13.6606227 C171.145694,13.6606227 167.705934,17.1203803 167.705934,21.3864561 L167.705934,24.2843348 L172.827086,24.2843348 L172.827086,21.38535 C172.827086,19.9640621 173.97294,18.811547 175.388213,18.811547 C176.802385,18.811547 177.948239,19.9640621 177.948239,21.3864561 L177.948239,26.3504561 C177.948239,26.8183197 177.819578,27.2574258 177.602944,27.6368045 L167.705934,44.8847136 L167.705934,50.0367439 L183.068292,50.0367439 L183.068292,44.8847136 L173.617748,44.8847136 L182.034605,30.2083955 Z" id="Fill-8" fill="#1F211E"></path>
            </g>
        </g>
    </g>
</svg>