<svg xmlns="http://www.w3.org/2000/svg" width="31" height="56" viewBox="0 0 31 56">
  <g fill="none" fill-rule="evenodd" stroke="#131413" stroke-linecap="round" transform="translate(0 .26)">
    <path d="M7.6793,0.6475 L15.1833,1.4925 C15.6753,1.5475 16.0283,1.9905 15.9733,2.4825 L15.4243,7.3585 C15.0493,10.6815 14.4013,13.9715 13.4183,17.1685 C12.7083,19.4805 11.8973,22.6825 11.4963,26.2405 L6.9233,27.3585 L6.2643,5.2165 L6.6893,1.4365 C6.7453,0.9455 7.1883,0.5925 7.6793,0.6475 Z"/>
    <path stroke-linejoin="round" stroke-width="1.5" d="M2.6694 4.6432L5.9634 5.0152M6.3904 1.1207L3.1074.7497"/>
    <polyline stroke-linejoin="round" stroke-width="1.5" points="3.108 .75 .988 1.412 .75 3.526 2.67 4.643"/>
    <path d="M11.6821 7.4273C11.6041 8.1233 10.9761 8.6233 10.2801 8.5453 9.5841 8.4673 9.0841 7.8393 9.1621 7.1433 9.2401 6.4473 9.8681 5.9473 10.5641 6.0253 11.2601 6.1033 11.7601 6.7313 11.6821 7.4273zM12.8967 18.9808L16.7447 27.7778 20.6927 27.7228C20.6927 27.7228 15.7697 21.4488 15.0297 10.8578"/>
    <polygon stroke-linejoin="round" stroke-width="1.5" points="12.652 26.032 8.356 54.822 4.61 54.822 5.92 27.248"/>
    <polygon stroke-linejoin="round" stroke-width="1.5" points="14.957 28.114 26.226 54.813 30.253 54.822 21.78 27.618"/>
  </g>
</svg>
